<svg width="79" height="48" viewBox="0 0 79 48" fill="none" xmlns="http://www.w3.org/2000/svg">
<path fill-rule="evenodd" clip-rule="evenodd" d="M0.409819 47.3962C0.409819 47.3962 0.409734 47.3963 0.540572 47.4697C0.611959 47.6016 0.612053 47.6016 0.612053 47.6016L0.619397 47.5976L0.641884 47.5855L0.730437 47.5382C0.808323 47.4967 0.923215 47.436 1.07096 47.3588C1.36646 47.2044 1.79334 46.9845 2.31838 46.7225C3.36862 46.1985 4.81091 45.5067 6.37976 44.8349C7.94917 44.1628 9.64228 43.5121 11.1948 43.0693C12.753 42.6248 14.1485 42.3961 15.1322 42.5499L15.1785 42.2535C14.126 42.089 12.6764 42.3347 11.1125 42.7808C9.54292 43.2285 7.83688 43.8846 6.26167 44.5591C4.68591 45.2339 3.23812 45.9284 2.18445 46.4541C1.65753 46.717 1.22899 46.9378 0.932055 47.0929C0.925253 47.0964 0.91852 47.0999 0.911856 47.1034C0.956925 47.0199 1.00764 46.9253 1.06342 46.8204C1.30767 46.3614 1.64894 45.7059 2.03735 44.9196C2.81385 43.3475 3.78001 41.2499 4.53555 39.1525C5.28923 37.0603 5.84075 34.9487 5.77223 33.356C5.73792 32.5586 5.54748 31.871 5.12846 31.3832C4.70476 30.8901 4.06749 30.6243 3.19228 30.6328L3.1952 30.9328C4.00485 30.9249 4.54829 31.1683 4.9009 31.5787C5.25819 31.9946 5.43964 32.6049 5.4725 33.3689C5.53833 34.8989 5.00534 36.9631 4.25331 39.0508C3.50313 41.1333 2.54236 43.2197 1.76837 44.7867C1.38152 45.5699 1.04166 46.2227 0.798574 46.6795C0.67704 46.9079 0.579716 47.0873 0.51283 47.2096C0.479387 47.2707 0.453555 47.3175 0.436113 47.3489L0.416339 47.3845L0.409819 47.3962ZM0.540572 47.4697L0.612053 47.6016L0.156441 47.8481L0.409819 47.3962L0.540572 47.4697Z" fill="white"/>
<path fill-rule="evenodd" clip-rule="evenodd" d="M38.8032 11.1122C25.9197 18.0561 14.4218 27.8131 7.47085 39.0643L7.72608 39.2219C14.6424 28.0267 26.0952 18.3023 38.9455 11.3763C51.7959 4.45035 66.03 0.330274 78.4998 0.330273V0.0302734C65.9696 0.0302729 51.6867 4.16841 38.8032 11.1122Z" fill="white"/>
</svg>
