<svg
    width="80"
    height="80"
    viewBox="0 0 80 80"
    fill="none"
    xmlns="http://www.w3.org/2000/svg"
  >
    {/* Background gradient circle */}
    <circle cx="40" cy="40" r="40" fill="url(#eLearningGradient)" />
    
    {/* Subtle inner glow */}
    <circle cx="40" cy="40" r="36" fill="url(#learningInnerGlow)" opacity="0.6" />
    
    {/* Laptop/screen base */}
    <path
      d="M54 23H26C24.343 23 23 24.343 23 26V46C23 47.657 24.343 49 26 49H54C55.657 49 57 47.657 57 46V26C57 24.343 55.657 23 54 23Z"
      fill="#2D1F40"
      stroke="#7127ba"
      strokeWidth="1.5"
      strokeLinejoin="round"
    />
    
    {/* Screen display */}
    <rect x="26" y="26" width="28" height="20" rx="1" fill="#C4B5FD" fillOpacity="0.15" />
    
    {/* Digital content on screen */}
    <rect x="29" y="29" width="12" height="1.5" rx="0.75" fill="#7127ba" />
    <rect x="29" y="32" width="22" height="1.5" rx="0.75" fill="#7127ba" fillOpacity="0.7" />
    <rect x="29" y="35" width="18" height="1.5" rx="0.75" fill="#7127ba" fillOpacity="0.5" />
    
    <rect x="29" y="39" width="8" height="5" rx="1" fill="#6D28D9" fillOpacity="0.4" />
    <rect x="39" y="39" width="12" height="5" rx="1" fill="#6D28D9" fillOpacity="0.2" />
    
    {/* Laptop base/keyboard */}
    <path
      d="M57 49H23L20 54C20 55.105 20.895 56 22 56H58C59.105 56 60 55.105 60 54L57 49Z"
      fill="#251c31"
      stroke="#7127ba"
      strokeWidth="1.5"
      strokeLinejoin="round"
    />
    
    {/* Keyboard details */}
    <rect x="32" y="52" width="16" height="1.5" rx="0.75" fill="#7127ba" fillOpacity="0.5" />
    
    {/* Book element */}
    <path
      d="M40 49V54C38.5 55.5 36 57 32 57C28 57 25.5 55.5 24 54V49C25.5 50.5 28 52 32 52C36 52 38.5 50.5 40 49Z"
      fill="#4F228D"
    />
    <path
      d="M56 49V54C54.5 55.5 52 57 48 57C44 57 41.5 55.5 40 54V49C41.5 50.5 44 52 48 52C52 52 54.5 50.5 56 49Z"
      fill="#7127ba"
    />
    <path
      d="M40 49V54"
      stroke="#251c31"
      strokeWidth="1"
      strokeLinecap="round"
    />
    
    {/* Digital connection elements */}
    <circle cx="19" cy="32" r="2" fill="#7127ba" fillOpacity="0.6" />
    <circle cx="16" cy="38" r="1.5" fill="#7127ba" fillOpacity="0.4" />
    <circle cx="19" cy="44" r="2" fill="#7127ba" fillOpacity="0.6" />
    
    <circle cx="61" cy="32" r="2" fill="#7127ba" fillOpacity="0.6" />
    <circle cx="64" cy="38" r="1.5" fill="#7127ba" fillOpacity="0.4" />
    <circle cx="61" cy="44" r="2" fill="#7127ba" fillOpacity="0.6" />
    
    {/* Connection lines */}
    <path
      d="M21 32H23"
      stroke="#7127ba"
      strokeWidth="1"
      strokeLinecap="round"
    />
    <path
      d="M17.5 38H23"
      stroke="#7127ba"
      strokeWidth="1"
      strokeLinecap="round"
      strokeOpacity="0.4"
    />
    <path
      d="M21 44H23"
      stroke="#7127ba"
      strokeWidth="1"
      strokeLinecap="round"
    />
    
    <path
      d="M59 32H57"
      stroke="#7127ba"
      strokeWidth="1"
      strokeLinecap="round"
    />
    <path
      d="M62.5 38H57"
      stroke="#7127ba"
      strokeWidth="1"
      strokeLinecap="round"
      strokeOpacity="0.4"
    />
    <path
      d="M59 44H57"
      stroke="#7127ba"
      strokeWidth="1"
      strokeLinecap="round"
    />
    
    {/* Graduation cap floating above */}
    <path
      d="M40 15L28 21L40 27L52 21L40 15Z"
      fill="#4F228D"
    />
    <path
      d="M33 23.4V29C33 29 36.5 32 40 32C43.5 32 47 29 47 29V23.4"
      stroke="#7127ba"
      strokeWidth="1.5"
      strokeLinecap="round"
      strokeLinejoin="round"
    />
    <path
      d="M52 21V27"
      stroke="#7127ba"
      strokeWidth="1.5"
      strokeLinecap="round"
    />
    
    {/* Gradients definitions */}
    <defs>
      <linearGradient id="eLearningGradient" x1="15" y1="10" x2="65" y2="70" gradientUnits="userSpaceOnUse">
        <stop offset="0" stopColor="#251c31" />
        <stop offset="1" stopColor="#1a0b2e" />
      </linearGradient>
      <radialGradient id="learningInnerGlow" cx="40" cy="40" r="36" gradientUnits="userSpaceOnUse">
        <stop offset="0.6" stopColor="#251c31" stopOpacity="0" />
        <stop offset="1" stopColor="#7127ba" stopOpacity="0.2" />
      </radialGradient>
    </defs>
  </svg>