<svg
    width="80"
    height="80"
    viewBox="0 0 80 80"
    fill="none"
    xmlns="http://www.w3.org/2000/svg"
  >
    {/* Background gradient circle */}
    <circle cx="40" cy="40" r="40" fill="url(#visualHubGradient)" />
    
    {/* Subtle inner glow */}
    <circle cx="40" cy="40" r="36" fill="url(#visualInnerGlow)" opacity="0.6" />
    
    {/* Central camera lens with aperture details */}
    <circle cx="40" cy="40" r="15" fill="#251c31" stroke="#7127ba" strokeWidth="1.5" />
    <circle cx="40" cy="40" r="11" fill="#2D1F40" stroke="#7127ba" strokeWidth="0.8" />
    <circle cx="40" cy="40" r="7" fill="#1a0b2e" />
    
    {/* Camera lens reflection */}
    <circle cx="37" cy="37" r="2" fill="#C4B5FD" fillOpacity="0.4" />
    <circle cx="43" cy="43" r="1" fill="#C4B5FD" fillOpacity="0.3" />
    
    {/* Aperture blades */}
    <path
      d="M40 29L43 36.5H37L40 29Z"
      fill="#7127ba"
      fillOpacity="0.7"
    />
    <path
      d="M51 40L43.5 43V37L51 40Z"
      fill="#7127ba"
      fillOpacity="0.7"
    />
    <path
      d="M40 51L37 43.5H43L40 51Z"
      fill="#7127ba"
      fillOpacity="0.7"
    />
    <path
      d="M29 40L36.5 37V43L29 40Z"
      fill="#7127ba"
      fillOpacity="0.7"
    />
    <path
      d="M47.5 32.5L41 39.5L39.5 38L47.5 32.5Z"
      fill="#7127ba"
      fillOpacity="0.7"
    />
    <path
      d="M32.5 47.5L39.5 41L38 39.5L32.5 47.5Z"
      fill="#7127ba"
      fillOpacity="0.7"
    />
    
    {/* Image thumbnails floating around the lens */}
    <rect x="19" y="23" width="10" height="8" rx="1" fill="#4F228D" />
    <rect x="21" y="25" width="6" height="4" rx="1" fill="#1a0b2e" />
    <rect x="22" y="26" width="2" height="2" rx="1" fill="#C4B5FD" fillOpacity="0.5" />
    
    <rect x="51" y="23" width="10" height="8" rx="1" fill="#7127ba" />
    <rect x="53" y="25" width="6" height="4" rx="1" fill="#1a0b2e" />
    <rect x="54" y="26" width="2" height="2" rx="1" fill="#C4B5FD" fillOpacity="0.5" />
    
    <rect x="19" y="49" width="10" height="8" rx="1" fill="#7127ba" />
    <rect x="21" y="51" width="6" height="4" rx="1" fill="#1a0b2e" />
    <rect x="22" y="52" width="2" height="2" rx="1" fill="#C4B5FD" fillOpacity="0.5" />
    
    <rect x="51" y="49" width="10" height="8" rx="1" fill="#4F228D" />
    <rect x="53" y="51" width="6" height="4" rx="1" fill="#1a0b2e" />
    <rect x="54" y="52" width="2" height="2" rx="1" fill="#C4B5FD" fillOpacity="0.5" />
    
    {/* AI processing and tagging elements */}
    <circle cx="15" cy="36" r="2" fill="#7127ba" />
    <path d="M16.5 37.5L19 40" stroke="#7127ba" strokeWidth="0.8" />
    <path d="M13.5 37.5L11 40" stroke="#7127ba" strokeWidth="0.8" />
    
    <circle cx="65" cy="36" r="2" fill="#7127ba" />
    <path d="M63.5 37.5L61 40" stroke="#7127ba" strokeWidth="0.8" />
    <path d="M66.5 37.5L69 40" stroke="#7127ba" strokeWidth="0.8" />
    
    {/* Digital connection elements */}
    <path
      d="M24 36H33"
      stroke="#7127ba"
      strokeWidth="1"
      strokeLinecap="round"
      strokeDasharray="1 2"
    />
    
    <path
      d="M47 36H56"
      stroke="#7127ba"
      strokeWidth="1"
      strokeLinecap="round"
      strokeDasharray="1 2"
    />
    
    <path
      d="M36 24V33"
      stroke="#7127ba"
      strokeWidth="1"
      strokeLinecap="round"
      strokeDasharray="1 2"
    />
    
    <path
      d="M36 47V56"
      stroke="#7127ba"
      strokeWidth="1"
      strokeLinecap="round"
      strokeDasharray="1 2"
    />
    
    <path
      d="M44 24V33"
      stroke="#7127ba"
      strokeWidth="1"
      strokeLinecap="round"
      strokeDasharray="1 2"
    />
    
    <path
      d="M44 47V56"
      stroke="#7127ba"
      strokeWidth="1"
      strokeLinecap="round"
      strokeDasharray="1 2"
    />
    
    {/* Meta tag symbols */}
    <circle cx="32" cy="20" r="1.5" fill="#7127ba" fillOpacity="0.6" />
    <circle cx="48" cy="20" r="1.5" fill="#7127ba" fillOpacity="0.6" />
    <circle cx="32" cy="60" r="1.5" fill="#7127ba" fillOpacity="0.6" />
    <circle cx="48" cy="60" r="1.5" fill="#7127ba" fillOpacity="0.6" />
    
    {/* Gradients definitions */}
    <defs>
      <linearGradient id="visualHubGradient" x1="15" y1="10" x2="65" y2="70" gradientUnits="userSpaceOnUse">
        <stop offset="0" stopColor="#251c31" />
        <stop offset="1" stopColor="#1a0b2e" />
      </linearGradient>
      <radialGradient id="visualInnerGlow" cx="40" cy="40" r="36" gradientUnits="userSpaceOnUse">
        <stop offset="0.6" stopColor="#251c31" stopOpacity="0" />
        <stop offset="1" stopColor="#7127ba" stopOpacity="0.2" />
      </radialGradient>
    </defs>
  </svg>