<svg width="882" height="572" viewBox="0 0 882 572" fill="none" xmlns="http://www.w3.org/2000/svg">
<path d="M584.727 0.5C541.061 48 455.527 170 462.727 278" stroke="url(#paint0_linear_296_28)"/>
<path d="M523.227 17.5C479.561 65 446.527 179.5 453.727 287.5" stroke="url(#paint1_linear_296_28)"/>
<path d="M471.727 16C452.727 82 437.227 253.5 437.227 307.5" stroke="url(#paint2_linear_296_28)"/>
<path d="M304.227 10C347.894 57.5 428.927 202.5 421.727 310.5" stroke="url(#paint3_linear_296_28)"/>
<path d="M365.727 10C409.394 57.5 437.928 212 430.728 320" stroke="url(#paint4_linear_296_28)"/>
<path d="M414.727 13C433.981 85.3321 435.727 266.819 435.727 326" stroke="url(#paint5_linear_296_28)"/>
<ellipse cx="452.727" cy="407" rx="271" ry="165" fill="url(#paint6_radial_296_28)"/>
<circle cx="440.727" cy="356" r="90" fill="url(#paint7_linear_296_28)"/>
<g filter="url(#filter0_d_296_28)">
<path fill-rule="evenodd" clip-rule="evenodd" d="M479.235 315.891C479.235 318.14 477.412 319.963 475.163 319.963H407.163C404.914 319.963 403.091 318.14 403.091 315.891C403.091 313.641 404.914 311.818 407.163 311.818H475.163C477.412 311.818 479.235 313.641 479.235 315.891Z" fill="white"/>
<path fill-rule="evenodd" clip-rule="evenodd" d="M479.235 397.746C479.235 399.995 477.412 401.818 475.163 401.818H407.163C404.914 401.818 403.091 399.995 403.091 397.746C403.091 395.496 404.914 393.673 407.163 393.673H475.163C477.412 393.673 479.235 395.496 479.235 397.746Z" fill="white"/>
<path d="M449.729 315.891L418.32 355.866L449.729 398.698" stroke="white" stroke-width="8"/>
</g>
<path d="M881.227 409.5C881.227 427.832 869.058 445.393 846.818 461.448C824.59 477.494 792.393 491.966 752.562 504.128C672.906 528.449 562.833 543.5 441.227 543.5C319.622 543.5 209.548 528.449 129.893 504.128C90.0619 491.966 57.8649 477.494 35.6366 461.448C13.3968 445.393 1.22728 427.832 1.22728 409.5C1.22728 391.168 13.3968 373.607 35.6366 357.552C57.8649 341.506 90.0619 327.034 129.893 314.872C209.548 290.551 319.622 275.5 441.227 275.5C562.833 275.5 672.906 290.551 752.562 314.872C792.393 327.034 824.59 341.506 846.818 357.552C869.058 373.607 881.227 391.168 881.227 409.5Z" stroke="url(#paint8_linear_296_28)"/>
<path d="M827.227 409.5C827.227 427.863 816.659 445.427 797.388 461.469C778.12 477.509 750.209 491.975 715.676 504.134C646.614 528.451 551.173 543.5 445.727 543.5C340.282 543.5 244.841 528.451 175.779 504.134C141.245 491.975 113.334 477.509 94.0666 461.469C74.796 445.427 64.2273 427.863 64.2273 409.5C64.2273 391.137 74.796 373.573 94.0666 357.531C113.334 341.491 141.245 327.025 175.779 314.866C244.841 290.549 340.282 275.5 445.727 275.5C551.173 275.5 646.614 290.549 715.676 314.866C750.209 327.025 778.12 341.491 797.388 357.531C816.659 373.573 827.227 391.137 827.227 409.5Z" stroke="url(#paint9_linear_296_28)"/>
<path d="M803.227 409.5C803.227 427.882 793.604 445.45 776.081 461.485C758.559 477.52 733.175 491.983 701.766 504.14C638.952 528.452 552.141 543.5 456.227 543.5C360.313 543.5 273.502 528.452 210.688 504.14C179.279 491.983 153.896 477.52 136.373 461.485C118.851 445.45 109.227 427.882 109.227 409.5C109.227 391.118 118.851 373.55 136.373 357.515C153.896 341.48 179.279 327.017 210.688 314.86C273.502 290.548 360.313 275.5 456.227 275.5C552.141 275.5 638.952 290.548 701.766 314.86C733.175 327.017 758.559 341.48 776.081 357.515C793.604 373.55 803.227 391.118 803.227 409.5Z" stroke="url(#paint10_linear_296_28)"/>
<path d="M598.227 340.5C598.227 416.114 530.002 477.5 445.727 477.5C361.452 477.5 293.227 416.114 293.227 340.5C293.227 264.886 361.452 203.5 445.727 203.5C530.002 203.5 598.227 264.886 598.227 340.5Z" stroke="url(#paint11_linear_296_28)"/>
<path d="M592.227 376C592.227 398.38 575.904 418.746 549.283 433.546C522.678 448.336 485.89 457.5 445.227 457.5C404.565 457.5 367.777 448.336 341.172 433.546C314.55 418.746 298.227 398.38 298.227 376C298.227 353.62 314.55 333.254 341.172 318.454C367.777 303.664 404.565 294.5 445.227 294.5C485.89 294.5 522.678 303.664 549.283 318.454C575.904 333.254 592.227 353.62 592.227 376Z" stroke="url(#paint12_linear_296_28)"/>
<defs>
<filter id="filter0_d_296_28" x="389.091" y="298.818" width="104.144" height="118" filterUnits="userSpaceOnUse" color-interpolation-filters="sRGB">
<feFlood flood-opacity="0" result="BackgroundImageFix"/>
<feColorMatrix in="SourceAlpha" type="matrix" values="0 0 0 0 0 0 0 0 0 0 0 0 0 0 0 0 0 0 127 0" result="hardAlpha"/>
<feOffset dy="1"/>
<feGaussianBlur stdDeviation="7"/>
<feComposite in2="hardAlpha" operator="out"/>
<feColorMatrix type="matrix" values="0 0 0 0 1 0 0 0 0 1 0 0 0 0 1 0 0 0 0.55 0"/>
<feBlend mode="normal" in2="BackgroundImageFix" result="effect1_dropShadow_296_28"/>
<feBlend mode="normal" in="SourceGraphic" in2="effect1_dropShadow_296_28" result="shape"/>
</filter>
<linearGradient id="paint0_linear_296_28" x1="523.514" y1="0.5" x2="523.514" y2="278" gradientUnits="userSpaceOnUse">
<stop stop-color="#3D1768"/>
<stop offset="1" stop-color="#3D1768" stop-opacity="0"/>
</linearGradient>
<linearGradient id="paint1_linear_296_28" x1="487.983" y1="17.5" x2="487.983" y2="287.5" gradientUnits="userSpaceOnUse">
<stop stop-color="#3D1768"/>
<stop offset="1" stop-color="#3D1768" stop-opacity="0"/>
</linearGradient>
<linearGradient id="paint2_linear_296_28" x1="446.477" y1="33" x2="446.477" y2="304" gradientUnits="userSpaceOnUse">
<stop stop-color="#3D1768"/>
<stop offset="1" stop-color="#3D1768" stop-opacity="0"/>
</linearGradient>
<linearGradient id="paint3_linear_296_28" x1="367.979" y1="35" x2="367.979" y2="310.5" gradientUnits="userSpaceOnUse">
<stop stop-color="#3D1768"/>
<stop offset="1" stop-color="#3D1768" stop-opacity="0"/>
</linearGradient>
<linearGradient id="paint4_linear_296_28" x1="402.15" y1="33" x2="402.15" y2="320" gradientUnits="userSpaceOnUse">
<stop stop-color="#3D1768"/>
<stop offset="1" stop-color="#3D1768" stop-opacity="0"/>
</linearGradient>
<linearGradient id="paint5_linear_296_28" x1="437.727" y1="39" x2="437.727" y2="336" gradientUnits="userSpaceOnUse">
<stop stop-color="#3D1768"/>
<stop offset="1" stop-color="#3D1768" stop-opacity="0"/>
</linearGradient>
<radialGradient id="paint6_radial_296_28" cx="0" cy="0" r="1" gradientUnits="userSpaceOnUse" gradientTransform="translate(452.727 407) rotate(90) scale(165 271)">
<stop stop-color="#763CAC"/>
<stop offset="1" stop-color="#320F85" stop-opacity="0"/>
</radialGradient>
<linearGradient id="paint7_linear_296_28" x1="440.727" y1="266" x2="440.727" y2="446" gradientUnits="userSpaceOnUse">
<stop stop-color="#301080" stop-opacity="0.6"/>
<stop offset="1" stop-color="#7840AD" stop-opacity="0.36"/>
</linearGradient>
<linearGradient id="paint8_linear_296_28" x1="441.227" y1="275" x2="441.227" y2="544" gradientUnits="userSpaceOnUse">
<stop stop-opacity="0"/>
<stop offset="0.479167" stop-color="#763CAC"/>
</linearGradient>
<linearGradient id="paint9_linear_296_28" x1="445.727" y1="275" x2="445.727" y2="544" gradientUnits="userSpaceOnUse">
<stop stop-opacity="0"/>
<stop offset="0.479167" stop-color="#763CAC"/>
</linearGradient>
<linearGradient id="paint10_linear_296_28" x1="456.227" y1="275" x2="456.227" y2="544" gradientUnits="userSpaceOnUse">
<stop stop-opacity="0"/>
<stop offset="0.479167" stop-color="#763CAC"/>
</linearGradient>
<linearGradient id="paint11_linear_296_28" x1="445.727" y1="203" x2="445.727" y2="478" gradientUnits="userSpaceOnUse">
<stop offset="0.197917" stop-opacity="0"/>
<stop offset="1" stop-color="#763CAC"/>
</linearGradient>
<linearGradient id="paint12_linear_296_28" x1="445.227" y1="294" x2="445.227" y2="458" gradientUnits="userSpaceOnUse">
<stop offset="0.197917" stop-opacity="0"/>
<stop offset="1" stop-color="#763CAC"/>
</linearGradient>
</defs>
</svg>
