<svg width="31" height="18" viewBox="0 0 31 18" fill="none" xmlns="http://www.w3.org/2000/svg">
<g clip-path="url(#clip0_116_179)">
<path d="M15.6883 0C11.6987 0 9.20522 1.9948 8.20781 5.98442C9.70392 3.98961 11.4494 3.24156 13.4442 3.74026C14.5823 4.02475 15.3958 4.85053 16.2962 5.76444C17.7631 7.25342 19.4607 8.97662 23.1689 8.97662C27.1585 8.97662 29.652 6.98182 30.6494 2.99221C29.1533 4.98701 27.4078 5.73506 25.413 5.23636C24.2749 4.95187 23.4614 4.12609 22.5609 3.21218C21.0941 1.72321 19.3965 0 15.6883 0ZM8.20781 8.97662C4.2182 8.97662 1.7247 10.9714 0.727295 14.961C2.2234 12.9662 3.96885 12.2182 5.96366 12.7169C7.10175 13.0014 7.91526 13.8272 8.81572 14.7411C10.2826 16.23 11.9802 17.9532 15.6883 17.9532C19.6779 17.9532 22.1714 15.9584 23.1689 11.9688C21.6727 13.9636 19.9273 14.7117 17.9325 14.213C16.7944 13.9285 15.9809 13.1027 15.0804 12.1888C13.6135 10.6998 11.9159 8.97662 8.20781 8.97662Z" fill="url(#paint0_linear_116_179)"/>
</g>
<defs>
<linearGradient id="paint0_linear_116_179" x1="-82.3962" y1="574.504" x2="2501.86" y2="2064.54" gradientUnits="userSpaceOnUse">
<stop stop-color="#2298BD"/>
<stop offset="1" stop-color="#0ED7B5"/>
</linearGradient>
<clipPath id="clip0_116_179">
<rect width="29.9221" height="18" fill="white" transform="translate(0.727295)"/>
</clipPath>
</defs>
</svg>
