<svg
    width="80"
    height="80"
    viewBox="0 0 80 80"
    fill="none"
    xmlns="http://www.w3.org/2000/svg"
  >
    {/* Background gradient circle */}
    <circle cx="40" cy="40" r="40" fill="url(#carSharingGradient)" />
    
    {/* Subtle inner glow */}
    <circle cx="40" cy="40" r="36" fill="url(#carInnerGlow)" opacity="0.6" />
    
    {/* Primary car shape with better detail */}
    <path
      d="M55.5 39.8C55.5 39.095 55.358 38.4 55.078 37.75L50.358 26.5C49.564 24.887 47.946 23.8 46.126 23.8H33.874C32.054 23.8 30.436 24.887 29.642 26.5L24.922 37.75C24.642 38.4 24.5 39.095 24.5 39.8V50.6C24.5 51.926 25.574 53 26.9 53H28.1C29.426 53 30.5 51.926 30.5 50.6V48.2H49.5V50.6C49.5 51.926 50.574 53 51.9 53H53.1C54.426 53 55.5 51.926 55.5 50.6V39.8Z"
      fill="#371864"
      stroke="#7127ba"
      strokeWidth="1.5"
    />
    
    {/* Car windows with slight transparency */}
    <path
      d="M47.5 31.8H32.5L30.2 38.2H49.8L47.5 31.8Z"
      fill="#C4B5FD"
      fillOpacity="0.3"
    />
    
    {/* Wheels with detailed hub caps */}
    <circle cx="33" cy="43" r="4.5" fill="#251c31" stroke="#7127ba" strokeWidth="1.5" />
    <circle cx="33" cy="43" r="2" fill="#4F228D" />
    <circle cx="33" cy="43" r="0.8" fill="#7127ba" />
    
    <circle cx="47" cy="43" r="4.5" fill="#251c31" stroke="#7127ba" strokeWidth="1.5" />
    <circle cx="47" cy="43" r="2" fill="#4F228D" />
    <circle cx="47" cy="43" r="0.8" fill="#7127ba" />
    
    {/* Headlights */}
    <path
      d="M27 40C27 39.448 27.448 39 28 39H30C30.552 39 31 39.448 31 40V41C31 41.552 30.552 42 30 42H28C27.448 42 27 41.552 27 41V40Z"
      fill="#F9FAFB"
    />
    
    <path
      d="M49 40C49 39.448 49.448 39 50 39H52C52.552 39 53 39.448 53 40V41C53 41.552 52.552 42 52 42H50C49.448 42 49 41.552 49 41V40Z"
      fill="#F9FAFB"
    />
    
    {/* Windshield reflection */}
    <path
      d="M37 33.5L34 38.5"
      stroke="#C4B5FD"
      strokeWidth="0.7"
      strokeLinecap="round"
    />
    
    <path
      d="M43 33.5L46 38.5"
      stroke="#C4B5FD"
      strokeWidth="0.7"
      strokeLinecap="round"
    />
    
    {/* Car undercarriage */}
    <rect x="30.5" y="48.2" width="19" height="1.5" rx="0.75" fill="#251c31" />
    
    {/* Digital connection lines (car sharing concept) */}
    <path
      d="M17 36C17 35.448 17.448 35 18 35H22C22.552 35 23 35.448 23 36C23 36.552 22.552 37 22 37H18C17.448 37 17 36.552 17 36Z"
      fill="#7127ba"
      fillOpacity="0.7"
    />
    
    <path
      d="M57 36C57 35.448 57.448 35 58 35H62C62.552 35 63 35.448 63 36C63 36.552 62.552 37 62 37H58C57.448 37 57 36.552 57 36Z"
      fill="#7127ba"
      fillOpacity="0.7"
    />
    
    <path
      d="M20 32C20 31.448 20.448 31 21 31H23C23.552 31 24 31.448 24 32C24 32.552 23.552 33 23 33H21C20.448 33 20 32.552 20 32Z"
      fill="#7127ba"
      fillOpacity="0.7"
    />
    
    <path
      d="M56 32C56 31.448 56.448 31 57 31H59C59.552 31 60 31.448 60 32C60 32.552 59.552 33 59 33H57C56.448 33 56 32.552 56 32Z"
      fill="#7127ba"
      fillOpacity="0.7"
    />
    
    {/* Car-sharing connection symbols */}
    <circle cx="20" cy="36" r="1.5" fill="#7127ba" />
    <circle cx="60" cy="36" r="1.5" fill="#7127ba" />
    
    {/* Gradients definitions */}
    <defs>
      <linearGradient id="carSharingGradient" x1="15" y1="10" x2="65" y2="70" gradientUnits="userSpaceOnUse">
        <stop offset="0" stopColor="#251c31" />
        <stop offset="1" stopColor="#1a0b2e" />
      </linearGradient>
      <radialGradient id="carInnerGlow" cx="40" cy="40" r="36" gradientUnits="userSpaceOnUse">
        <stop offset="0.6" stopColor="#251c31" stopOpacity="0" />
        <stop offset="1" stopColor="#7127ba" stopOpacity="0.2" />
      </radialGradient>
    </defs>
  </svg>