<svg width="26" height="25" viewBox="0 0 26 25" fill="none" xmlns="http://www.w3.org/2000/svg">
<g clip-path="url(#clip0_116_158)">
<path d="M19.8679 0H6.58667C3.35063 0 0.727295 2.62333 0.727295 5.85938V19.1406C0.727295 22.3767 3.35063 25 6.58667 25H19.8679C23.104 25 25.7273 22.3767 25.7273 19.1406V5.85938C25.7273 2.62333 23.104 0 19.8679 0Z" fill="#E14E1D"/>
<path d="M5.41479 3.71094L6.25562 13.1438H17.0671L16.7043 17.1897L13.2233 18.131L9.74878 17.1911L9.51646 14.5933H6.3855L6.83325 19.6012L13.2226 21.3758L19.6201 19.6012L20.4778 10.0249H9.10854L8.8231 6.83057H20.7604L21.0398 3.71094H5.41479Z" fill="white"/>
<path d="M13.2273 3.71094H5.41479L6.25562 13.1438H13.2273V10.0249H9.10855L8.8231 6.83057H13.2273V3.71094ZM13.2273 18.1296L13.2233 18.131L9.74878 17.1911L9.51646 14.5933H6.3855L6.83325 19.6012L13.2226 21.3758L13.2274 21.3744L13.2273 18.1296Z" fill="#EBEBEB"/>
</g>
<defs>
<clipPath id="clip0_116_158">
<rect width="25" height="25" fill="white" transform="translate(0.727295)"/>
</clipPath>
</defs>
</svg>
