<svg width="28" height="23" viewBox="0 0 28 23" fill="none" xmlns="http://www.w3.org/2000/svg">
<g clip-path="url(#clip0_116_156)">
<path d="M23.0819 15.6551C23.194 15.5908 23.2872 15.4981 23.3521 15.3863C23.417 15.2746 23.4514 15.1478 23.4518 15.0186L23.4651 10.755C23.4655 10.6257 23.4998 10.4989 23.5648 10.3871C23.6297 10.2754 23.7229 10.1827 23.8349 10.1183L26.1461 8.79073C26.2581 8.72636 26.3851 8.69257 26.5143 8.69276C26.6435 8.69295 26.7703 8.72712 26.8822 8.79183C26.994 8.85653 27.0868 8.94951 27.1513 9.06143C27.2159 9.17334 27.2498 9.30026 27.2498 9.42945V17.1809C27.2498 17.3105 27.2156 17.4378 27.1507 17.5499C27.0857 17.6621 26.9924 17.7552 26.88 17.8197L18.1576 22.8296C18.0461 22.8936 17.9199 22.9274 17.7914 22.9275C17.6629 22.9276 17.5366 22.8941 17.4251 22.8304L10.58 18.9152C10.4672 18.8508 10.3735 18.7577 10.3082 18.6455C10.243 18.5332 10.2086 18.4056 10.2086 18.2757V14.3672C10.2086 14.3628 10.2138 14.3599 10.2182 14.362C10.2218 14.3643 10.227 14.362 10.227 14.3568V14.3525C10.227 14.3496 10.2285 14.3466 10.2315 14.3451L15.8692 11.1064C15.8743 11.1034 15.8721 11.0953 15.8662 11.0953C15.8646 11.0953 15.8631 11.0947 15.862 11.0936C15.8609 11.0925 15.8603 11.091 15.8603 11.0894L15.8713 7.25751C15.8719 7.12792 15.8382 7.00049 15.7738 6.88808C15.7093 6.77566 15.6164 6.68223 15.5043 6.61721C15.3922 6.5522 15.2649 6.5179 15.1353 6.51777C15.0057 6.51765 14.8784 6.55171 14.7662 6.61651L10.5763 9.03099C10.4644 9.09539 10.3377 9.12929 10.2086 9.12929C10.0796 9.12929 9.95281 9.09539 9.84099 9.03099L5.6378 6.61081C5.52582 6.54629 5.39885 6.51235 5.26961 6.51242C5.14038 6.51249 5.01344 6.54656 4.90154 6.6112C4.78963 6.67584 4.69671 6.76879 4.63209 6.88071C4.56746 6.99262 4.53342 7.11957 4.53338 7.2488V14.1743C4.53351 14.3034 4.49971 14.4302 4.43537 14.5422C4.37103 14.6541 4.27841 14.7471 4.16678 14.812C4.05516 14.8768 3.92845 14.9112 3.79936 14.9116C3.67027 14.9121 3.54333 14.8786 3.43125 14.8146L1.09861 13.4808C0.985651 13.4163 0.891789 13.323 0.826568 13.2104C0.761348 13.0979 0.727096 12.9701 0.727296 12.84L0.748017 0.734933C0.748316 0.605916 0.782496 0.47924 0.847135 0.367583C0.911775 0.255927 1.00461 0.163205 1.11634 0.0986995C1.22808 0.0341935 1.35479 0.000165402 1.48381 2.06512e-05C1.61283 -0.000124099 1.73962 0.0336196 1.8515 0.0978747L9.84172 4.68689C9.95337 4.75103 10.0799 4.78478 10.2086 4.78478C10.3374 4.78478 10.4639 4.75103 10.5755 4.68689L18.5634 0.0976675C18.6754 0.0332607 18.8025 -0.000527583 18.9317 -0.000304074C19.061 -8.05651e-05 19.1879 0.0341469 19.2997 0.0989408C19.4116 0.163735 19.5044 0.256814 19.5689 0.368831C19.6333 0.480848 19.6672 0.607859 19.6671 0.737109V12.845C19.6672 12.9745 19.6331 13.1017 19.5683 13.2139C19.5035 13.326 19.4103 13.4191 19.298 13.4838L15.1147 15.893C15.0024 15.9577 14.9091 16.051 14.8443 16.1634C14.7795 16.2758 14.7456 16.4032 14.7459 16.5329C14.7462 16.6626 14.7807 16.79 14.846 16.902C14.9113 17.0141 15.005 17.107 15.1176 17.1712L17.4252 18.4849C17.5367 18.5484 17.6629 18.5816 17.7912 18.5814C17.9195 18.5811 18.0455 18.5473 18.1567 18.4834L23.0819 15.6551ZM23.566 4.79381C23.5661 4.92411 23.6007 5.05206 23.6664 5.1646C23.7321 5.27714 23.8264 5.37025 23.9398 5.43443C24.0532 5.49861 24.1816 5.53157 24.3119 5.52994C24.4422 5.52832 24.5697 5.49216 24.6815 5.42517L26.8918 4.09905C27.0009 4.03368 27.0912 3.94117 27.154 3.83053C27.2167 3.71988 27.2497 3.59488 27.2498 3.46769V0.765185C27.2496 0.634946 27.2149 0.507093 27.1491 0.394654C27.0834 0.282216 26.989 0.18921 26.8757 0.125114C26.7623 0.0610185 26.6339 0.0281235 26.5037 0.0297811C26.3735 0.0314387 26.246 0.0675896 26.1343 0.13455L23.9241 1.46068C23.815 1.52604 23.7246 1.61856 23.6619 1.72922C23.5991 1.83989 23.5661 1.96492 23.566 2.09214V4.79454V4.79381Z" fill="#007FFF"/>
</g>
<defs>
<clipPath id="clip0_116_156">
<rect width="26.5225" height="23" fill="white" transform="translate(0.727295)"/>
</clipPath>
</defs>
</svg>
