<svg width="35" height="7" viewBox="0 0 35 7" fill="none" xmlns="http://www.w3.org/2000/svg">
<g clip-path="url(#clip0_119_2)">
<path d="M29.3633 0.00289423V1.11078H26.9449V6.93942H25.7357V1.11085H23.2669V0.00289423H29.3633ZM29.6352 6.27866C29.7203 6.27866 29.7948 6.30882 29.8579 6.36926C29.9219 6.42963 29.9538 6.50199 29.9547 6.58626C29.9544 6.64154 29.9388 6.69571 29.9096 6.74288C29.8807 6.78937 29.8404 6.82792 29.7924 6.85495C29.7449 6.88297 29.6905 6.89755 29.6352 6.89709C29.5466 6.89709 29.4712 6.86686 29.4082 6.80649C29.3451 6.74605 29.3139 6.67288 29.3147 6.58626C29.3139 6.50199 29.3451 6.42966 29.4082 6.36926C29.4712 6.30882 29.5466 6.27866 29.6352 6.27866ZM5.66809 6.93942L1.20928 1.48265V6.9366H0V0H1.51149L7.14472 6.88753L7.14479 1.11085L7.14431 0.00289423H13.2406V1.11078H8.35399V2.89309H12.2838V4.00104H8.35399V5.83154H13.2407V6.93942H5.66809ZM17.1162 3.99047L17.9087 4.96058L16.2848 6.94763H14.6978L17.1162 3.99047ZM16.2848 0.00578846L18.3308 2.50762L20.3703 0.0134615L21.9529 0.0111058L19.1231 3.47644L21.9574 6.94232H20.3703L14.7023 0.00578846H16.2848ZM31.699 3.97492H32.2348V6.00761C32.234 6.19439 32.193 6.35412 32.1128 6.48853C32.0316 6.62281 31.9193 6.72538 31.7752 6.79774C31.6318 6.86922 31.4638 6.90584 31.2729 6.90584C31.0984 6.90584 30.942 6.87487 30.8027 6.81443C30.6633 6.75399 30.5528 6.66339 30.4717 6.54412C30.3896 6.42492 30.3495 6.27624 30.3495 6.09821H30.8863C30.8871 6.17609 30.9051 6.2436 30.9395 6.30013C30.9733 6.35595 31.0228 6.40093 31.0821 6.42963C31.1435 6.45992 31.2139 6.47504 31.2934 6.475C31.3795 6.475 31.4532 6.4575 31.513 6.42169C31.5728 6.38669 31.6187 6.33424 31.6507 6.26433C31.6818 6.19513 31.6982 6.10932 31.699 6.00755V3.97492ZM34.4395 4.76983C34.4265 4.64665 34.3691 4.5504 34.2692 4.48209C34.1683 4.41289 34.0381 4.37877 33.8783 4.37877C33.7662 4.37877 33.6695 4.39546 33.5891 4.42804C33.5089 4.46142 33.4466 4.50591 33.4039 4.56238C33.3614 4.61879 33.3401 4.6832 33.3384 4.75556C33.3384 4.81593 33.3532 4.86843 33.3818 4.91212C33.4115 4.95794 33.4516 4.99634 33.499 5.02425C33.5504 5.05609 33.6054 5.08195 33.6629 5.10132C33.7235 5.12196 33.7841 5.13946 33.8447 5.15382L34.1241 5.22139C34.2364 5.24684 34.3454 5.28096 34.4494 5.32471C34.5534 5.36765 34.6477 5.42251 34.7304 5.48847C34.8132 5.55443 34.8788 5.63392 34.9271 5.72694C34.9754 5.81996 35 5.92887 35 6.05446C35 6.22374 34.9558 6.37242 34.8664 6.50118C34.7771 6.6292 34.6485 6.72936 34.4797 6.80171C34.3118 6.87326 34.1085 6.90981 33.8693 6.90981C33.6383 6.90981 33.4368 6.87481 33.2671 6.80487C33.0967 6.73575 32.964 6.63391 32.8681 6.50037C32.7722 6.36684 32.7206 6.20388 32.7132 6.01233H33.2443C33.2516 6.11248 33.2844 6.19594 33.3401 6.26352C33.3966 6.33029 33.4703 6.37956 33.5605 6.41294C33.6514 6.44559 33.753 6.46228 33.8652 6.46228C33.9824 6.46228 34.0856 6.44478 34.1749 6.41059C34.2634 6.37639 34.333 6.32874 34.3831 6.26668C34.4338 6.20543 34.4593 6.13314 34.4601 6.05049C34.4593 5.97497 34.4362 5.91217 34.392 5.86284C34.3469 5.81357 34.2847 5.77224 34.2052 5.73886C34.125 5.70547 34.0316 5.67525 33.925 5.64907L33.5858 5.5648C33.3408 5.50355 33.1467 5.4106 33.0049 5.28574C32.8624 5.16095 32.7919 4.99564 32.7919 4.78813C32.7919 4.61805 32.8394 4.46856 32.9353 4.34054C33.0304 4.21265 33.1607 4.11324 33.3253 4.0425C33.4908 3.97095 33.6777 3.93595 33.8857 3.93595C34.0971 3.93595 34.2822 3.97095 34.4421 4.0425C34.6017 4.11324 34.7272 4.21178 34.818 4.33737C34.909 4.46304 34.9566 4.60687 34.9591 4.76983H34.4395Z" fill="white"/>
</g>
<defs>
<clipPath id="clip0_119_2">
<rect width="35" height="7" fill="white"/>
</clipPath>
</defs>
</svg>
