<svg width="24" height="24" viewBox="0 0 24 24" fill="none" xmlns="http://www.w3.org/2000/svg">
<path d="M23.3936 3.66002L12.6233 22.9196C12.4007 23.3173 11.8294 23.3196 11.6038 22.9241L0.619698 3.66227C0.37351 3.23064 0.741948 2.70845 1.23114 2.79564L12.0131 4.72258C12.0819 4.7351 12.1525 4.7351 12.2213 4.72258L22.7775 2.79864C23.2646 2.70995 23.6353 3.22783 23.3936 3.66002Z" fill="url(#paint0_linear_299_36)"/>
<path d="M17.1488 0.268153L9.1789 1.82965C9.11529 1.84208 9.0576 1.87529 9.01491 1.92406C8.97222 1.97283 8.94693 2.03439 8.94302 2.09909L8.45234 10.3806C8.4497 10.426 8.45767 10.4714 8.47562 10.5132C8.49357 10.555 8.521 10.5921 8.55575 10.6214C8.5905 10.6508 8.6316 10.6717 8.67581 10.6824C8.72002 10.6931 8.76612 10.6934 8.81046 10.6832L11.0297 10.1704C11.0775 10.1594 11.1273 10.1606 11.1745 10.1739C11.2217 10.1871 11.2648 10.212 11.2999 10.2463C11.335 10.2806 11.3609 10.3231 11.3753 10.37C11.3897 10.4169 11.3921 10.4666 11.3822 10.5147L10.7228 13.7432C10.7127 13.7929 10.7157 13.8444 10.7315 13.8926C10.7472 13.9407 10.7753 13.984 10.8128 14.0181C10.8503 14.0522 10.896 14.076 10.9455 14.0872C10.9949 14.0983 11.0464 14.0964 11.095 14.0817L12.4652 13.6648C12.6776 13.6003 12.882 13.7871 12.8374 14.0046L11.7893 19.0759C11.724 19.3932 12.1459 19.566 12.3218 19.2942L12.439 19.1127L18.934 6.15078C19.0431 5.93328 18.855 5.68578 18.6171 5.7319L16.3324 6.1729C16.2832 6.18245 16.2324 6.17921 16.1849 6.16347C16.1374 6.14773 16.0947 6.12004 16.0609 6.08304C16.0271 6.04605 16.0035 6.001 15.9921 5.95221C15.9808 5.90343 15.9822 5.85255 15.9962 5.80447L17.4868 0.636591C17.5009 0.588337 17.5022 0.537286 17.4907 0.48836C17.4793 0.439434 17.4554 0.394283 17.4215 0.357259C17.3875 0.320234 17.3446 0.292586 17.2968 0.276979C17.249 0.261372 17.1981 0.258333 17.1488 0.268153Z" fill="url(#paint1_linear_299_36)"/>
<defs>
<linearGradient id="paint0_linear_299_36" x1="0.351235" y1="2.10744" x2="13.7563" y2="20.3126" gradientUnits="userSpaceOnUse">
<stop stop-color="#41D1FF"/>
<stop offset="1" stop-color="#BD34FE"/>
</linearGradient>
<linearGradient id="paint1_linear_299_36" x1="11.3944" y1="0.6919" x2="13.8193" y2="17.3266" gradientUnits="userSpaceOnUse">
<stop stop-color="#FFEA83"/>
<stop offset="0.083" stop-color="#FFDD35"/>
<stop offset="1" stop-color="#FFA800"/>
</linearGradient>
</defs>
</svg>
