<svg width="189" height="61" viewBox="0 0 189 61" fill="none" xmlns="http://www.w3.org/2000/svg">
<path d="M187.834 22.8918C188.145 26.6389 185.974 30.5092 181.553 34.3142C177.143 38.1102 170.577 41.765 162.317 45.0707C145.803 51.6798 122.63 56.8507 96.7164 59.0014C70.803 61.1521 47.0947 59.8721 29.7171 56.0759C21.0252 54.1771 13.946 51.6548 8.97024 48.6378C3.98279 45.6137 1.20372 42.1541 0.892726 38.407C0.581735 34.66 2.75246 30.7896 7.17313 26.9847C11.5834 23.1886 18.15 19.5339 26.4099 16.2281C42.9239 9.61903 66.0968 4.44814 92.0102 2.29745C117.924 0.146752 141.632 1.42671 159.009 5.22297C167.701 7.12178 174.781 9.64401 179.756 12.661C184.744 15.6852 187.523 19.1447 187.834 22.8918Z" stroke="white"/>
</svg>
